# xmcd
#
# Track frame offsets: 
#        150
#        6790
#        33010
#        59722
#        60917
#        65974
#        74038
#        74905
#        84718
#        85874
#        100395
#        113551
#        120565
#        129417
#        132974
#        138808
#        157351
#        166328
#        171667
#        174943
#        194836
#        206542
#        212029
#        212479
#        229386
#        248034
#        263681
#        284765
#        288654
#        291030
#        327516
#        348579
#
# Disc length: 4674 seconds
#
# Revision: 0
# Processed by: cddbd v1.5.2PL0 Copyright (c) Steve Scherf et al.
# Submitted via: ExactAudioCopy v0.95b3
#
DISCID=0b124020
DTITLE=The Beatles  - AB  Road - Complete Purple Chick Set v1.1 Jan.22
DTITLE=Various Artist - D3  FLAC
DYEAR=1900
DGENRE=
TTITLE0=Don't Let Me Down 22.46
TTITLE1=Don't Let Me Down 22.47
TTITLE2=Don't Let Me Down 22.48
TTITLE3=A Taste Of Honey 22.49
TTITLE4=Improvisation 22.50
TTITLE5=Oh! Darling 22.51
TTITLE6=I've Got A Feeling 22.52
TTITLE7=Dialogue
TTITLE8=I've Got A Feeling 22.53
TTITLE9=I've Got A Feeling 22.54
TTITLE10=I've Got A Feeling 22.55
TTITLE11=I've Got A Feeling 22.56
TTITLE12=I've Got A Feeling 22.57
TTITLE13=I'm Ready-improvisation 22.58
TTITLE14=Save The Last Dance-Don't Let Me Down 22.59
TTITLE15=Don't Let Me Down 22.60
TTITLE16=Improvisation 22.61
TTITLE17=Dig A Pony 22.62
TTITLE18=Dig A Pony 22.63
TTITLE19=Dig A Pony 22.64
TTITLE20=Dig A Pony 22.65
TTITLE21=Dig A Pony 22.66
TTITLE22=Slate announcement
TTITLE23=Dig A Pony 22.67
TTITLE24=Dig A Pony 22.68
TTITLE25=I've Got A Feeling 22.69
TTITLE26=I've Got A Feeling 22.70
TTITLE27=I've Got A Feeling 22.71
TTITLE28=I've Got A Feeling 22.72
TTITLE29=I've Got A Feeling 22.73
TTITLE30=I've Got A Feeling 22.74
TTITLE31=Carol 22.75
EXTD=
EXTT0=
EXTT1=
EXTT2=
EXTT3=
EXTT4=
EXTT5=
EXTT6=
EXTT7=
EXTT8=
EXTT9=
EXTT10=
EXTT11=
EXTT12=
EXTT13=
EXTT14=
EXTT15=
EXTT16=
EXTT17=
EXTT18=
EXTT19=
EXTT20=
EXTT21=
EXTT22=
EXTT23=
EXTT24=
EXTT25=
EXTT26=
EXTT27=
EXTT28=
EXTT29=
EXTT30=
EXTT31=
PLAYORDER=
